Coordinates
version=1
nRows=8
nColumns=63
inDegrees=yes

Units are S.I. units (second, meters, Newtons, ...)
If the header above contains a line with 'inDegrees', this indicates whether rotational values are in degrees (yes) or radians (no).

endheader
time	pelvis_tilt	pelvis_list	pelvis_rotation	pelvis_tx	pelvis_ty	pelvis_tz	hip_flexion_r	hip_adduction_r	hip_rotation_r	knee_angle_r	knee_angle_r_beta	ankle_angle_r	subtalar_angle_r	mtp_angle_r	hip_flexion_l	hip_adduction_l	hip_rotation_l	knee_angle_l	knee_angle_l_beta	ankle_angle_l	subtalar_angle_l	mtp_angle_l	L5_S1_Flex_Ext	L5_S1_Lat_Bending	L5_S1_axial_rotation	L4_L5_Flex_Ext	L4_L5_Lat_Bending	L4_L5_axial_rotation	L3_L4_Flex_Ext	L3_L4_Lat_Bending	L3_L4_axial_rotation	L2_L3_Flex_Ext	L2_L3_Lat_Bending	L2_L3_axial_rotation	L1_L2_Flex_Ext	L1_L2_Lat_Bending	L1_L2_axial_rotation	L1_T12_Flex_Ext	L1_T12_Lat_Bending	L1_T12_axial_rotation	Abs_r3	Abs_r2	Abs_r1	Abs_t1	Abs_t2	neck_flexion	neck_bending	neck_rotation	arm_flex_r	arm_add_r	arm_rot_r	elbow_flex_r	pro_sup_r	wrist_flex_r	wrist_dev_r	arm_flex_l	arm_add_l	arm_rot_l	elbow_flex_l	pro_sup_l	wrist_flex_l	wrist_dev_l
0.000000	-1.803627	-5.334269	96.419508	0.226269	1.026473	0.416360	-1.916255	-1.420286	-12.967201	6.173432	0.107747	23.094284	12.470345	0.000000	-1.389559	1.371679	-10.279308	2.543231	0.044388	23.976492	13.449713	0.000000	0.019073	-0.354117	0.950025	0.035421	-0.470976	1.009401	0.031335	-0.861000	1.009401	0.021799	-0.861000	0.831272	0.017711	-0.722115	0.771895	0.010898	-0.548527	0.712519	0.136238	-4.005842	5.283753	0.000000	0.000000	23.207247	2.482716	-1.059274	10.470786	-5.286492	62.983991	41.159527	18.356265	-10.701326	18.358670	20.527968	-6.327465	76.541034	38.886307	76.679942	16.061941	17.378310
0.019231	-1.709667	-5.831248	95.855964	0.226882	1.025727	0.417155	-1.140163	-1.454148	-12.882266	6.482946	0.113149	23.113517	13.043566	0.000000	-1.071894	1.384678	-8.790030	2.235092	0.039010	23.167180	10.298256	0.000000	0.056780	-0.333923	1.046011	0.105446	-0.444118	1.111386	0.093284	-0.811901	1.111386	0.064894	-0.811901	0.915259	0.052726	-0.680936	0.849884	0.032444	-0.517247	0.784508	0.405573	-3.777407	5.817598	0.000000	0.000000	24.035426	2.112447	-0.524096	8.002608	-3.492701	52.603320	42.077328	5.795981	-19.575351	21.615500	20.754823	-5.825240	77.851969	37.339750	78.093569	15.426232	13.582059
0.038462	-1.633362	-6.249135	95.449851	0.227272	1.025126	0.417881	-0.507782	-1.485155	-12.878850	6.712382	0.117153	23.131045	13.516457	0.000000	-0.789112	1.402752	-7.495940	1.984242	0.034632	22.510843	7.665135	0.000000	0.087430	-0.318652	1.126004	0.162367	-0.423807	1.196379	0.143639	-0.774770	1.196379	0.099924	-0.774770	0.985253	0.081188	-0.649794	0.914878	0.049958	-0.493591	0.844503	0.624505	-3.604651	6.262495	0.000000	0.000000	24.722223	1.806670	-0.183206	6.214933	-2.171163	44.854655	42.735473	-2.966281	-26.196847	24.036427	20.963562	-5.406561	78.923672	36.158680	79.134804	14.827363	10.672804
0.057692	-1.572886	-6.593118	95.185357	0.227458	1.024659	0.418537	-0.007468	-1.513263	-12.947046	6.870326	0.119910	23.147457	13.896963	0.000000	-0.540646	1.424892	-6.385023	1.785480	0.031162	21.994890	5.510288	0.000000	0.111551	-0.307705	1.190859	0.207162	-0.409247	1.265288	0.183268	-0.748153	1.265288	0.127492	-0.748153	1.042002	0.103587	-0.627471	0.967573	0.063740	-0.476634	0.893144	0.796800	-3.480816	6.623201	0.000000	0.000000	25.278549	1.560389	-0.011905	5.040403	-1.277841	39.488486	43.162874	-8.276270	-30.776953	25.687695	21.153434	-5.065858	79.774397	35.310865	79.844032	14.270712	8.566802
0.076923	-1.526412	-6.868388	95.046668	0.227462	1.024317	0.419124	0.372421	-1.538426	-13.076948	6.965366	0.121569	23.163345	14.193032	0.000000	-0.325927	1.450086	-5.445263	1.633606	0.028512	21.606728	3.793657	0.000000	0.129671	-0.300485	1.241431	0.240811	-0.399645	1.319021	0.213036	-0.730600	1.319021	0.148201	-0.730600	1.086252	0.120412	-0.612749	1.008663	0.074094	-0.465452	0.931074	0.926225	-3.399148	6.904469	0.000000	0.000000	25.715312	1.368606	0.014505	4.411661	-0.768698	36.255306	43.388441	-10.479732	-33.526806	26.635546	21.323686	-4.797560	80.422401	34.764072	80.261642	13.761659	7.180310
0.096154	-1.492113	-7.080133	95.017971	0.227303	1.024087	0.419644	0.643528	-1.560597	-13.258650	7.006088	0.122279	23.179297	14.412612	0.000000	-0.144388	1.477323	-4.664646	1.523422	0.026589	21.333763	2.475181	0.000000	0.142315	-0.296396	1.278576	0.264294	-0.394207	1.358487	0.233810	-0.720657	1.358487	0.162652	-0.720657	1.118754	0.132154	-0.604411	1.038843	0.081319	-0.459117	0.958932	1.016545	-3.352891	7.111056	0.000000	0.000000	26.043421	1.226326	-0.079274	4.261351	-0.599698	34.905605	43.441087	-9.922416	-34.657547	26.946224	21.473568	-4.596096	80.885938	34.486068	80.428020	13.305581	6.429585
0.115385	-1.468162	-7.233544	95.083452	0.227004	1.023960	0.420098	0.817498	-1.579733	-13.482247	7.001079	0.122192	23.195905	14.563650	0.000000	0.004540	1.505590	-4.031156	1.449728	0.025303	21.163403	1.514800	0.000000	0.150013	-0.294840	1.303148	0.278589	-0.392137	1.384594	0.246456	-0.716874	1.384594	0.171450	-0.716874	1.140254	0.139302	-0.601238	1.058807	0.085717	-0.456707	0.977361	1.071528	-3.335289	7.247716	0.000000	0.000000	26.273787	1.128552	-0.268544	4.522114	-0.726804	35.189875	43.349722	-6.950069	-34.380312	26.685971	21.602326	-4.455895	81.183263	34.444622	80.383555	12.907856	6.230885
0.134615	-1.452733	-7.333809	95.227297	0.226584	1.023925	0.420486	0.905973	-1.595786	-13.737831	6.958926	0.121456	23.213757	14.654094	0.000000	0.121423	1.533878	-3.532779	1.407323	0.024562	21.083055	0.872454	0.000000	0.153291	-0.295220	1.316002	0.284676	-0.392642	1.398252	0.251841	-0.717798	1.398252	0.175196	-0.717798	1.151502	0.142346	-0.602012	1.069251	0.087590	-0.457296	0.987001	1.094940	-3.339587	7.319207	0.000000	0.000000	26.417318	1.070287	-0.528605	5.126595	-1.105979	36.858608	43.143257	-1.908437	-32.906241	25.921031	21.709210	-4.371385	81.332632	34.607500	80.168633	12.573865	6.500466
